<?xml version="1.0" standalone="no"?>
<!DOCTYPE svg PUBLIC "-//W3C//DTD SVG 20010904//EN"
 "http://www.w3.org/TR/2001/REC-SVG-20010904/DTD/svg10.dtd">
<svg version="1.0" xmlns="http://www.w3.org/2000/svg"
 width="1592.000000pt" height="1592.000000pt" viewBox="0 0 1592.000000 1592.000000"
 preserveAspectRatio="xMidYMid meet">

<g transform="translate(0.000000,1592.000000) scale(0.100000,-0.100000)"
fill="#000000" stroke="none">
<path d="M7719 12410 c-120 -19 -195 -56 -280 -138 l-47 -44 -43 25 c-123 72
-275 73 -392 3 l-54 -33 -45 37 c-76 60 -159 92 -257 98 -162 9 -267 -30 -372
-138 l-67 -69 -38 11 c-56 15 -161 5 -216 -22 -66 -31 -132 -92 -158 -144 -21
-44 -23 -45 -78 -51 -177 -19 -278 -60 -368 -149 -68 -68 -122 -168 -149 -277
l-17 -66 -53 -6 c-138 -14 -272 -151 -291 -299 -6 -46 -10 -52 -63 -87 -76
-52 -143 -126 -180 -199 -98 -194 -99 -431 -3 -603 l26 -47 -28 -36 c-137
-181 -137 -451 0 -653 l45 -64 -26 -66 c-22 -53 -27 -82 -26 -148 0 -98 12
-149 53 -227 l30 -56 -13 -134 c-17 -174 -17 -764 -1 -933 7 -71 24 -212 38
-313 23 -165 24 -185 10 -195 -11 -9 -16 -33 -18 -87 -3 -85 8 -78 -108 -59
-81 14 -149 1 -243 -48 -166 -87 -261 -283 -282 -580 -18 -246 64 -706 170
-959 61 -144 90 -196 199 -344 51 -69 120 -163 153 -210 132 -183 206 -229
437 -267 l50 -8 62 -317 c44 -219 75 -347 100 -415 111 -300 259 -513 607
-869 l137 -141 -116 -32 c-161 -45 -266 -82 -428 -154 -166 -73 -237 -130
-286 -230 -56 -114 -61 -215 -21 -395 13 -56 16 -93 11 -118 -5 -20 -10 -37
-12 -39 -3 -3 -262 -46 -393 -65 -151 -22 -324 -92 -451 -182 -61 -42 -134
-104 -134 -111 0 -6 158 -97 168 -97 4 0 31 18 61 40 123 93 255 133 655 200
125 21 130 21 139 3 6 -10 31 -40 56 -67 131 -141 442 -288 1347 -636 612
-236 696 -269 710 -287 7 -7 19 -54 29 -103 16 -84 19 -90 42 -90 24 0 25 2
18 51 -7 47 -38 178 -66 275 -16 52 -7 79 20 65 21 -12 59 -120 100 -291 25
-100 27 -105 54 -108 26 -3 27 -1 22 25 -4 15 -9 34 -11 41 -2 8 3 20 11 28
12 13 30 7 141 -46 70 -33 131 -60 136 -60 18 0 5 16 -35 45 -23 16 -64 46
-92 65 -27 20 -84 57 -127 83 -66 42 -77 53 -85 85 -6 26 -5 49 6 77 19 53 8
106 -30 150 -78 88 -215 52 -251 -66 -13 -46 -7 -47 -146 18 -125 58 -293 126
-622 253 -333 129 -642 261 -813 346 -268 134 -313 188 -268 322 26 76 26 123
1 232 -40 174 -20 280 64 342 117 86 431 199 759 272 9 2 34 -10 56 -28 l38
-32 -136 -32 c-149 -35 -267 -82 -348 -138 -63 -43 -84 -73 -86 -123 -2 -68
28 -114 127 -194 199 -161 319 -233 716 -432 520 -260 755 -409 1043 -660 99
-86 224 -228 280 -317 25 -39 49 -67 59 -68 9 0 32 21 49 48 100 146 320 371
494 503 288 219 650 433 1280 756 327 167 371 194 417 257 32 44 35 82 12 132
-28 58 -146 114 -325 154 -171 38 -190 20 -30 -29 173 -53 252 -108 237 -165
-8 -33 -101 -115 -192 -171 -42 -25 -77 -45 -78 -43 -1 2 -21 36 -44 75 -32
55 -54 79 -88 99 -57 34 -175 70 -276 85 -43 7 -78 15 -78 18 1 3 40 33 87 66
48 33 137 100 198 149 60 48 115 90 121 93 28 11 374 -90 547 -158 136 -54
187 -82 224 -121 72 -75 84 -160 48 -348 -16 -83 -25 -163 -24 -210 2 -52 -3
-84 -14 -105 -21 -42 -115 -132 -180 -173 -113 -72 -501 -242 -917 -402 -118
-45 -287 -111 -374 -146 -87 -36 -160 -63 -161 -62 -1 2 -10 20 -20 42 -20 42
-62 72 -112 82 -44 8 -111 -25 -142 -71 -20 -29 -23 -43 -18 -87 3 -29 8 -62
12 -74 5 -17 -3 -25 -57 -54 -247 -130 -559 -338 -508 -340 8 0 73 29 145 64
120 59 338 156 352 156 3 0 2 -12 -1 -27 -4 -15 -3 -29 4 -33 9 -5 8 -23 0
-70 -6 -34 -9 -64 -6 -67 3 -3 15 -3 28 0 21 6 25 17 40 104 19 109 82 339
100 360 15 18 35 16 40 -5 3 -10 -6 -54 -19 -97 -25 -85 -63 -280 -63 -325 0
-23 4 -27 24 -23 21 4 24 14 40 106 9 56 21 118 26 137 11 40 -37 19 470 210
529 199 888 350 1100 462 153 81 332 199 361 237 28 39 31 39 244 1 356 -62
441 -89 578 -182 32 -21 62 -38 66 -36 28 11 161 93 161 99 0 25 -205 160
-312 206 -107 45 -157 56 -418 98 -124 20 -235 38 -247 40 -29 7 -30 35 -3
173 60 307 -16 482 -257 597 -112 54 -309 127 -448 166 -66 18 -122 34 -124
36 -2 1 61 69 140 150 335 345 499 583 599 868 22 65 160 693 160 731 0 2 21
4 48 4 68 0 167 26 232 61 73 39 145 111 220 219 32 47 97 137 144 200 176
236 265 467 332 859 84 496 3 857 -226 1003 -56 35 -158 68 -214 68 -22 0 -68
-7 -101 -14 -33 -8 -61 -13 -64 -11 -2 2 -6 35 -8 72 -3 40 -12 75 -21 85 -16
20 -17 11 23 263 45 288 58 494 52 855 -3 179 -11 368 -17 421 l-12 97 41 60
c59 86 83 160 85 262 0 47 -5 110 -13 140 l-13 56 40 62 c57 88 82 169 89 284
9 153 -26 278 -108 388 -33 44 -34 47 -34 145 0 117 -18 166 -85 238 l-41 45
12 68 c22 126 0 265 -61 384 -56 110 -203 216 -339 243 l-64 13 -14 54 c-16
65 -42 109 -89 149 -58 51 -129 82 -205 88 l-69 6 -33 61 c-45 85 -155 198
-228 235 -138 69 -295 67 -471 -4 -12 -5 -18 -3 -18 6 0 28 -73 119 -119 148
-57 37 -120 47 -181 31 -42 -11 -45 -11 -60 12 -8 12 -39 49 -69 81 -125 133
-299 161 -468 76 l-62 -31 -46 22 c-56 27 -162 37 -221 21 -23 -6 -57 -22 -77
-36 l-36 -24 -50 34 c-96 64 -240 94 -362 75z m456 -2600 c778 -29 1439 -110
1775 -219 175 -56 370 -169 458 -266 110 -121 132 -218 139 -630 5 -296 5
-300 29 -336 54 -80 202 -500 234 -666 11 -57 20 -106 20 -109 0 -2 6 -4 13
-4 11 0 12 -12 6 -57 -19 -129 -17 -123 -52 -123 -17 0 -133 25 -258 55 -518
126 -785 165 -1124 165 -415 0 -691 -76 -1150 -319 -86 -45 -176 -62 -370 -68
-250 -7 -436 26 -539 96 -23 16 -81 49 -131 73 -306 153 -609 220 -995 220
-319 1 -543 -29 -952 -127 -235 -57 -369 -85 -404 -85 -7 0 -14 29 -18 71 -4
39 -10 77 -13 85 -3 9 2 14 16 14 15 0 23 10 31 43 54 204 102 333 220 589
l77 167 -5 233 c-11 557 44 693 349 868 235 135 529 205 1104 264 317 33 630
56 878 65 302 12 368 12 662 1z m-1635 -2490 c186 -24 306 -57 440 -123 l85
-42 -445 -7 c-564 -9 -650 -15 -739 -59 -96 -47 -205 -159 -259 -268 -30 -60
-39 -87 -33 -99 35 -63 228 -237 316 -285 39 -21 50 -22 380 -22 265 0 381 -4
527 -19 218 -23 200 -27 338 73 47 33 86 57 88 52 6 -16 -29 -135 -65 -220
-61 -149 -152 -271 -266 -357 -167 -125 -395 -198 -667 -211 -289 -14 -515 56
-676 210 -132 124 -260 350 -310 544 -46 178 -43 415 7 549 62 164 341 270
784 298 97 6 403 -3 495 -14z m3355 -5 c137 -21 236 -50 330 -96 202 -98 274
-230 262 -479 -19 -389 -234 -764 -518 -904 -154 -76 -221 -89 -449 -90 -226
-1 -330 16 -508 86 -218 85 -354 212 -453 422 -36 77 -94 265 -85 274 3 2 45
-25 94 -60 132 -95 123 -93 314 -72 128 15 239 19 523 19 l361 0 57 35 c75 45
201 153 261 224 l49 56 -17 44 c-26 69 -93 165 -156 226 -74 71 -165 118 -255
131 -39 6 -302 13 -585 17 l-515 7 36 21 c129 77 360 130 659 154 155 12 472
4 595 -15z m1390 -266 c58 -15 128 -77 161 -141 100 -197 94 -528 -16 -968
-53 -208 -116 -337 -264 -540 -58 -80 -132 -181 -163 -224 -50 -68 -66 -83
-118 -107 -33 -15 -79 -30 -102 -34 l-41 -6 14 63 c8 35 25 108 38 163 l23
100 49 5 c67 8 102 29 167 100 52 58 117 163 117 190 0 7 -22 -16 -49 -51 -69
-91 -118 -139 -165 -160 -46 -21 -96 -25 -96 -8 0 6 16 79 36 163 83 351 106
512 103 702 -1 94 1 107 24 147 43 74 52 76 86 23 76 -120 102 -371 53 -504
-13 -35 -22 -66 -19 -68 3 -3 23 22 45 55 48 73 62 130 62 258 0 116 -24 214
-80 329 l-38 79 34 46 c41 56 157 166 190 181 28 13 30 21 8 42 -30 31 -81 14
-163 -53 -40 -33 -155 -165 -192 -221 -15 -22 -16 -15 -16 126 l-1 150 34 47
c41 56 98 96 162 113 60 16 64 16 117 3z m-6672 -32 c25 -15 62 -47 82 -71
l36 -44 6 -159 6 -158 -53 70 c-79 104 -191 210 -244 230 -43 16 -47 16 -71 1
-14 -9 -25 -20 -25 -24 0 -4 19 -18 41 -32 41 -25 164 -148 194 -193 15 -23
13 -28 -25 -108 -62 -129 -84 -231 -78 -359 4 -77 11 -119 26 -153 20 -46 82
-140 88 -134 2 1 -8 34 -22 72 -35 95 -41 197 -19 305 27 133 74 240 106 240
5 0 24 -24 42 -52 l34 -53 1 -165 c2 -189 17 -293 86 -590 26 -107 46 -200 46
-207 0 -19 -55 -16 -99 6 -44 23 -105 84 -163 163 -23 32 -44 56 -46 54 -14
-14 68 -147 132 -214 52 -55 88 -75 151 -82 l49 -5 19 -80 c10 -44 26 -118 37
-164 l18 -83 -46 7 c-64 9 -135 47 -174 91 -18 20 -60 76 -93 123 -34 47 -96
133 -139 190 -115 155 -183 301 -235 506 -144 574 -101 994 113 1091 50 23
164 13 219 -19z m2602 -33 c21 -51 19 -53 -15 -14 -33 40 -36 50 -15 50 8 0
22 -16 30 -36z m1299 -9 c-20 -25 -38 -45 -40 -45 -6 0 7 51 18 73 5 9 20 17
34 17 l25 0 -37 -45z m-1948 -2 c-9 -37 -37 -75 -67 -91 -31 -16 -95 -9 -120
14 -27 25 -39 6 -39 -64 0 -153 156 -241 286 -162 96 60 111 213 28 295 l-35
35 73 0 c40 0 127 -5 192 -10 97 -8 127 -15 160 -34 60 -35 130 -123 186 -234
38 -75 39 -73 -74 -150 -140 -97 -136 -96 -336 -86 -182 9 -523 11 -695 4
-163 -7 -221 24 -343 182 -42 55 -43 57 -28 85 30 56 108 145 152 173 26 16
68 31 97 36 94 13 350 31 461 33 l108 1 -6 -27z m2660 -5 c-17 -85 -121 -122
-183 -65 l-22 20 -11 -27 c-51 -135 79 -281 218 -246 91 23 142 87 142 179 0
62 -10 89 -50 134 l-31 36 78 -5 c357 -22 391 -27 450 -66 37 -25 153 -171
153 -193 0 -21 -129 -171 -169 -198 -70 -46 -89 -48 -357 -41 -167 5 -330 3
-487 -6 l-235 -13 -53 28 c-56 29 -144 88 -192 128 l-29 24 35 70 c42 82 133
199 181 231 43 29 134 39 385 41 l184 1 -7 -32z m-1234 -39 c66 -14 115 -39
151 -76 26 -28 27 -32 17 -83 -19 -98 -9 -424 21 -690 12 -112 43 -234 70
-278 45 -75 49 -26 19 242 -11 99 -20 189 -20 200 0 12 15 -10 33 -49 79 -169
152 -271 281 -392 182 -172 403 -271 690 -309 144 -19 383 -14 518 11 369 67
636 269 811 613 63 124 114 257 153 398 15 54 31 103 36 109 9 10 15 -253 10
-425 -4 -144 -21 -245 -98 -573 -119 -512 -144 -629 -219 -1002 -89 -448 -135
-588 -250 -766 -165 -256 -477 -587 -790 -838 -133 -107 -572 -419 -722 -513
-129 -81 -319 -172 -424 -202 -125 -36 -348 -60 -489 -52 -385 20 -570 98
-1070 449 -307 216 -378 269 -529 397 -335 283 -650 647 -764 882 -75 155
-104 256 -168 577 -73 367 -126 613 -213 981 -118 504 -110 453 -111 742 0
267 5 337 19 263 14 -74 78 -259 122 -354 98 -209 270 -418 433 -526 207 -136
446 -194 761 -182 244 9 434 50 607 132 242 114 422 291 539 530 87 179 121
356 109 558 l-7 108 40 38 c40 38 126 75 197 84 65 9 187 6 237 -4z m-1624
-4211 c72 -51 129 -94 128 -95 -1 -1 -50 -12 -109 -23 -138 -27 -228 -54 -300
-93 -59 -31 -117 -87 -117 -112 0 -25 -25 -17 -86 28 -166 122 -165 191 4 276
72 36 289 106 339 110 7 1 70 -41 141 -91z m695 -462 c207 -109 355 -156 584
-182 245 -28 523 -4 719 61 171 57 396 173 547 283 26 19 49 33 51 31 2 -2 15
-65 30 -139 41 -211 38 -204 101 -231 l55 -24 -98 -54 c-526 -293 -884 -555
-1063 -781 -35 -44 -85 -121 -110 -171 l-45 -90 -41 83 c-149 300 -499 582
-1133 912 l-145 75 55 24 c30 13 65 27 78 31 12 4 26 15 31 25 7 13 71 315 71
336 0 2 48 -27 106 -65 58 -38 151 -94 207 -124z m-513 167 c-1 -17 -38 -184
-41 -187 -6 -5 -157 -66 -163 -66 -3 0 -14 21 -25 46 -28 63 -54 58 -61 -13
l-5 -51 -72 39 -71 40 20 49 c17 41 27 51 67 68 105 45 352 97 351 75z m2843
-44 c59 -17 70 -25 93 -60 39 -63 39 -64 -11 -92 -49 -28 -46 -29 -61 21 -6
21 -27 8 -49 -30 l-20 -36 -60 25 c-33 14 -65 30 -72 36 -9 10 -43 148 -43
177 0 10 135 -15 223 -41z m-2148 -1199 c7 -11 -54 -45 -63 -35 -7 7 34 45 49
45 4 0 10 -4 14 -10z"/>
<path d="M6227 8245 c-152 -29 -353 -111 -474 -193 -143 -97 -216 -189 -327
-410 l-57 -114 83 65 c254 198 556 307 846 307 198 -1 387 -37 647 -125 89
-30 183 -58 208 -61 48 -7 102 8 110 29 7 20 -10 180 -23 225 -16 53 -49 86
-120 122 -78 39 -320 115 -447 140 -141 28 -341 35 -446 15z"/>
<path d="M9115 8245 c-207 -34 -516 -137 -587 -195 -45 -38 -65 -94 -74 -219
-8 -105 0 -116 85 -116 42 0 102 15 241 62 420 141 729 159 1025 61 169 -56
376 -170 488 -268 26 -23 47 -39 47 -36 0 18 -119 242 -166 313 -111 167 -339
309 -612 380 -123 32 -314 39 -447 18z"/>
<path d="M7231 5238 c-30 -55 -51 -107 -52 -128 -8 -176 46 -280 147 -280 25
0 70 11 104 25 33 14 67 25 76 25 32 0 86 -43 154 -125 141 -169 243 -168 392
5 70 81 119 120 152 120 12 0 45 -11 74 -25 143 -66 236 0 249 178 5 60 1 86
-16 138 -21 62 -78 165 -86 157 -3 -2 5 -36 16 -74 40 -132 25 -308 -27 -328
-8 -3 -63 6 -122 21 -64 15 -118 24 -133 20 -15 -4 -55 -32 -89 -63 -81 -72
-117 -87 -210 -87 -101 -1 -139 14 -218 84 -39 34 -80 61 -99 65 -20 4 -70 -4
-137 -21 -91 -23 -109 -25 -123 -14 -50 42 -57 167 -17 303 14 49 23 90 20 93
-2 3 -27 -37 -55 -89z"/>
<path d="M9130 4369 c-25 -25 -53 -37 -138 -60 -128 -35 -350 -72 -562 -96
-226 -25 -876 -25 -1080 0 -333 41 -709 116 -740 147 -26 26 -82 34 -138 20
-61 -15 -92 -44 -92 -86 0 -39 12 -49 73 -66 46 -12 50 -16 110 -112 78 -127
159 -228 228 -287 277 -234 639 -331 1174 -316 514 15 852 145 1091 420 28 32
81 108 119 168 64 103 72 112 121 134 58 26 78 52 68 90 -9 36 -88 75 -153 75
-42 0 -54 -5 -81 -31z m-2280 -204 c553 -112 1071 -133 1660 -69 189 20 432
65 553 100 17 5 17 4 -1 -33 -28 -53 -92 -137 -158 -206 -158 -163 -414 -269
-739 -307 -132 -15 -471 -12 -607 4 -352 44 -594 157 -759 353 -81 96 -145
193 -126 193 1 0 81 -16 177 -35z"/>
<path d="M7420 3303 c0 -33 47 -58 150 -82 207 -49 423 -49 628 -1 105 25 152
50 152 83 0 22 -1 22 -77 15 -103 -9 -688 -9 -780 1 -72 7 -73 6 -73 -16z"/>
</g>
</svg>
